<svg width="599" height="599" viewBox="0 0 599 599" fill="none" xmlns="http://www.w3.org/2000/svg">
<circle cx="299.5" cy="299.5" r="299.5" fill="black"/>
<circle cx="300" cy="312.5" r="14" fill="url(#paint0_linear_3_84)"/>
<path d="M304.944 448.763C301.158 449.519 299.035 449.555 295.248 448.763V569.5H304.944V448.763Z" fill="url(#paint1_linear_3_84)"/>
<path d="M304.944 448.763C301.158 449.519 299.035 449.555 295.248 448.763V569.5H304.944V448.763Z" fill="url(#paint2_linear_3_84)"/>
<path d="M282.32 446.816C278.182 445.648 276.068 444.338 272.624 440.974V526.658H282.32V446.816Z" fill="url(#paint3_linear_3_84)"/>
<path d="M327.568 440.974C324.505 444.128 322.569 445.44 318.68 446.816V526.658H328.376L327.568 440.974Z" fill="url(#paint4_linear_3_84)"/>
<path d="M259.696 433.184C254.348 430.089 252.127 427.621 250 421.5V490.632H259.696V433.184Z" fill="url(#paint5_linear_3_84)"/>
<path d="M351 421.5C348.478 426.916 346.483 429.6 341.304 433.184V490.632H351V421.5Z" fill="url(#paint6_linear_3_84)"/>
<path d="M425.5 129.5H385L479.5 264L385 398H425L519.5 264L425.5 129.5Z" fill="url(#paint7_linear_3_84)"/>
<path d="M177 129.5H217.5L123 264L217.5 398H177.5L83 264L177 129.5Z" fill="url(#paint8_linear_3_84)"/>
<path d="M89.5 474C185.501 305.243 232.982 212.626 300 53C372.818 216.202 419.164 308.05 511.5 474C443.167 436.809 411.744 417.883 353 403.5L334 381C334.972 343.228 329.168 293.066 300 263.5C269.208 299.11 262.227 344.739 266.5 381L248 403.5C198.887 412.282 167.192 431.598 89.5 474Z" fill="url(#paint9_linear_3_84)"/>
<defs>
<linearGradient id="paint0_linear_3_84" x1="300" y1="298.5" x2="300" y2="326.5" gradientUnits="userSpaceOnUse">
<stop stop-color="#31BB9F"/>
<stop offset="1" stop-color="#15A3D2"/>
</linearGradient>
<linearGradient id="paint1_linear_3_84" x1="299.913" y1="448.861" x2="300.118" y2="569.5" gradientUnits="userSpaceOnUse">
<stop stop-color="#FFDA03"/>
<stop offset="0.494792" stop-color="#FFB103"/>
<stop offset="1" stop-color="#FF4A03"/>
</linearGradient>
<linearGradient id="paint2_linear_3_84" x1="299.913" y1="448.861" x2="300.118" y2="569.5" gradientUnits="userSpaceOnUse">
<stop stop-color="#FFDA03"/>
<stop offset="0.494792" stop-color="#FFB103"/>
<stop offset="1" stop-color="#FF4A03"/>
</linearGradient>
<linearGradient id="paint3_linear_3_84" x1="299.913" y1="441.399" x2="300.571" y2="526.657" gradientUnits="userSpaceOnUse">
<stop stop-color="#FFD803"/>
<stop offset="0.515625" stop-color="#FFB403"/>
<stop offset="1" stop-color="#FF4E03"/>
</linearGradient>
<linearGradient id="paint4_linear_3_84" x1="299.913" y1="441.399" x2="300.571" y2="526.657" gradientUnits="userSpaceOnUse">
<stop stop-color="#FFD803"/>
<stop offset="0.515625" stop-color="#FFB403"/>
<stop offset="1" stop-color="#FF4E03"/>
</linearGradient>
<linearGradient id="paint5_linear_3_84" x1="300.5" y1="421.5" x2="300.5" y2="490.632" gradientUnits="userSpaceOnUse">
<stop stop-color="#BE5F07"/>
<stop offset="1" stop-color="#FF4F03"/>
</linearGradient>
<linearGradient id="paint6_linear_3_84" x1="300.5" y1="421.5" x2="300.5" y2="490.632" gradientUnits="userSpaceOnUse">
<stop stop-color="#BE5F07"/>
<stop offset="1" stop-color="#FF4F03"/>
</linearGradient>
<linearGradient id="paint7_linear_3_84" x1="452.25" y1="129.5" x2="452.25" y2="364.5" gradientUnits="userSpaceOnUse">
<stop stop-color="#2964FB"/>
<stop offset="1"/>
</linearGradient>
<linearGradient id="paint8_linear_3_84" x1="150.25" y1="129.5" x2="150" y2="357" gradientUnits="userSpaceOnUse">
<stop stop-color="#2965FE"/>
<stop offset="1" stop-color="#000510"/>
<stop offset="1"/>
</linearGradient>
<linearGradient id="paint9_linear_3_84" x1="300.5" y1="53" x2="300.5" y2="474" gradientUnits="userSpaceOnUse">
<stop stop-color="#66FFDE"/>
<stop offset="1" stop-color="#0D87B0"/>
</linearGradient>
</defs>
</svg>
